<svg xmlns="http://www.w3.org/2000/svg" width="38" height="44" viewBox="0 0 38 44" fill="none">
  <path d="M2.17676 10.4527C1.94786 8.18829 1.78409 6.55844 1.77073 5.34276C1.75711 4.10258 1.90967 3.50954 2.12903 3.18052C2.6476 2.40269 3.49912 1.91107 4.43202 1.85089C4.82665 1.82543 5.41651 1.98982 6.48373 2.62171C7.52986 3.24112 8.85947 4.19788 10.706 5.5283L29.1212 18.7962C31.4513 20.475 33.1453 21.6966 34.302 22.6875C35.5016 23.7152 35.9016 24.3195 35.9832 24.7177C36.1867 25.7102 35.8755 26.7384 35.1558 27.4515C34.867 27.7376 34.1991 28.0187 32.6309 28.2087C31.1189 28.3918 29.0317 28.469 26.1618 28.5739L22.4038 28.7112C22.3545 28.713 22.3058 28.7148 22.2579 28.7165C21.1598 28.7563 20.4005 28.7837 19.7018 29.0221L20.0246 29.9686L19.7017 29.0221C19.0852 29.2325 18.5156 29.5613 18.0252 29.9901L18.6834 30.743L18.0252 29.9901C17.4693 30.4761 17.0659 31.1199 16.4824 32.051C16.4569 32.0917 16.4311 32.1329 16.4049 32.1747L14.4069 35.3606C12.8811 37.7935 11.7707 39.5625 10.8561 40.7804C9.90754 42.0435 9.33015 42.4813 8.93792 42.5884C7.96052 42.8552 6.9145 42.6106 6.15671 41.9381C5.85262 41.6682 5.52924 41.0197 5.23905 39.467C4.95926 37.9698 4.74834 35.8919 4.45951 33.0347L2.17676 10.4527Z" fill="#714CEF" stroke="white" stroke-width="2"/>
</svg>